<?xml version="1.0" encoding="UTF-8" standalone="no"?>
<!-- Created with Inkscape (http://www.inkscape.org/) -->

<svg
   version="1.1"
   id="svg78"
   width="993.59998"
   height="157.60001"
   viewBox="0 0 993.59998 157.60001"
   sodipodi:docname="line.jpg"
   xmlns:inkscape="http://www.inkscape.org/namespaces/inkscape"
   xmlns:sodipodi="http://sodipodi.sourceforge.net/DTD/sodipodi-0.dtd"
   xmlns="http://www.w3.org/2000/svg"
   xmlns:svg="http://www.w3.org/2000/svg">
  <defs
     id="defs82" />
  <sodipodi:namedview
     id="namedview80"
     pagecolor="#ffffff"
     bordercolor="#666666"
     borderopacity="1.0"
     inkscape:showpageshadow="2"
     inkscape:pageopacity="0.0"
     inkscape:pagecheckerboard="0"
     inkscape:deskcolor="#d1d1d1"
     showgrid="false" />
  <g
     inkscape:groupmode="layer"
     inkscape:label="Image"
     id="g84">
    <path
       style="fill:#414a4c;stroke-width:0.8"
       d="M 160.8,105.25088 C 134.62,79.104056 112.77329,57.59618 112.25175,57.455601 111.73021,57.315023 92.910598,75.54912 70.430378,97.975814 L 29.557255,138.75163 15.378628,124.56976 1.2,110.38789 54.399999,57.152975 C 83.659998,27.873772 108.62759,3.1652125 109.88354,2.2450657 l 2.28355,-1.67299414 47.71893,47.71396744 c 26.24542,26.242682 48.07895,47.713967 48.51898,47.713967 0.44002,0 22.21777,-21.420001 48.39499,-47.600003 26.17723,-26.180002 47.95498,-47.60000295 48.395,-47.60000295 0.44003,0 22.31058,21.50829495 48.60123,47.79620995 L 401.59741,96.392422 424.9987,73.057501 C 462.59159,35.571233 491.28913,7.1507799 495.02738,3.7049878 l 3.47212,-3.2004885 47.75272,47.7477537 c 26.264,26.261264 48.11274,47.747753 48.55277,47.747753 0.44002,0 22.21777,-21.420001 48.395,-47.600003 26.17722,-26.180002 47.95722,-47.60000295 48.4,-47.60000295 0.44277,0 22.22277,21.42000095 48.4,47.60000295 26.17722,26.180002 47.84164,47.600003 48.14315,47.600003 0.30151,0 22.00748,-21.330001 48.23556,-47.400003 26.228,-26.070002 48.00496,-47.4000029 48.39328,-47.4000029 0.6812,0 30.33624,28.9022699 83.43656,81.3187089 13.97472,13.794713 25.40472,25.655501 25.4,26.357301 -0.008,0.70181 -0.72856,1.92761 -1.60856,2.724 -0.88,0.79639 -1.6,1.75977 -1.6,2.14085 0,0.38109 -5.0864,5.89493 -11.30312,12.25299 l -11.30304,11.56009 -2.09696,-1.62812 c -1.15328,-0.89548 -13.79688,-13.2057 -28.09688,-27.35606 -14.3,-14.150354 -32.03144,-31.674791 -39.4032,-38.943185 l -13.40312,-13.215263 -48.39688,48.391868 -48.3968,48.39187 -48.19999,-48.17681 -48.2,-48.176815 -48.24895,48.127865 -48.24896,48.12787 -48.34449,-48.33955 -48.3445,-48.339548 -48.40978,48.385238 -48.40979,48.38525 -47.89863,-47.89366 c -26.34425,-26.3415 -48.29494,-47.758922 -48.77933,-47.594264 -0.48438,0.164658 -22.24597,21.629379 -48.35909,47.699384 -26.11311,26.07 -47.63095,47.39787 -47.81743,47.39528 C 208.55256,152.79269 186.98,131.3977 160.8,105.25088 Z"
       id="path260" />
  </g>
</svg>
